<svg width="176" height="45" viewBox="0 0 176 45" fill="none" xmlns="http://www.w3.org/2000/svg">
<g clip-path="url(#clip0_4_3885)">
<path d="M16.6393 33.7231C16.6393 36.6417 15.2021 38.0013 12.1133 38.0013C9.02445 38.0013 7.58728 36.6417 7.58728 33.7231V0.614014H0V33.9103C0 40.8464 4.52908 44.9865 12.1164 44.9865C19.7036 44.9865 24.2358 40.8494 24.2358 33.9164V0.614014H16.6424V33.7231H16.6393Z" fill="#212023"/>
<path d="M48.4858 19.6648C48.4858 22.8686 48.544 25.4801 48.6267 27.5699C47.9439 25.7195 47.0928 23.4701 46.0549 20.8156L38.1006 0.614031H30.373V44.356H37.8955V25.0536C37.8955 21.9879 37.819 19.3978 37.7118 17.2804C38.4374 19.2076 39.3131 21.4877 40.3295 24.0317L48.2868 44.3498H55.9502V0.610962H48.4889V19.6648H48.4858Z" fill="#212023"/>
<path d="M69.9877 0.620117H62.4095V44.3651H81.9054V37.5143H69.9877V0.620117Z" fill="#212023"/>
<path d="M127.589 0C120.051 0 115.548 4.13892 115.548 11.075V33.925C115.548 40.8611 120.051 45 127.589 45C135.128 45 139.695 40.8611 139.695 33.925V29.3501H132.174V33.7377C132.174 36.5779 130.674 37.9595 127.595 37.9595C124.516 37.9595 123.075 36.6178 123.075 33.7377V11.2623C123.075 8.34232 124.51 6.98212 127.595 6.98212C130.681 6.98212 132.174 8.34232 132.174 11.2623V15.7758H139.695V11.075C139.695 4.13892 135.171 0 127.589 0Z" fill="#212023"/>
<path d="M160.574 21.839L170.186 0.614014H161.931L152.585 21.9556L162.236 44.359H170.739L160.574 21.839Z" fill="#212023"/>
<path d="M173.88 0.47583C172.721 0.47583 171.778 1.42058 171.778 2.5824C171.778 3.74423 172.721 4.68898 173.88 4.68898C175.039 4.68898 175.981 3.74423 175.981 2.5824C175.981 1.42058 175.039 0.47583 173.88 0.47583ZM173.88 4.21508C172.983 4.21508 172.251 3.48435 172.251 2.5824C172.251 1.68046 172.98 0.949733 173.88 0.949733C174.78 0.949733 175.509 1.68046 175.509 2.5824C175.509 3.48435 174.78 4.21508 173.88 4.21508Z" fill="#212023"/>
<path d="M174.206 3.1083C174.139 3.14499 174.06 3.16333 173.968 3.16333C173.889 3.16333 173.819 3.14804 173.752 3.12053C173.685 3.09301 173.63 3.05326 173.581 3.00129C173.532 2.94931 173.496 2.88816 173.471 2.81784C173.444 2.74752 173.432 2.66803 173.432 2.58242C173.432 2.49681 173.444 2.42037 173.471 2.35005C173.499 2.27973 173.535 2.21858 173.584 2.16661C173.633 2.11463 173.691 2.07488 173.758 2.04431C173.825 2.01373 173.898 2.0015 173.978 2.0015C174.051 2.0015 174.121 2.01679 174.188 2.03708C174.255 2.05737 174.314 2.08489 174.366 2.11891C174.417 2.15293 174.458 2.19651 174.486 2.24849C174.515 2.30047 174.533 2.36161 174.538 2.42648V2.42953C174.538 2.44177 174.538 2.45096 174.538 2.46015C174.538 2.4663 174.538 2.47549 174.538 2.48163C174.538 2.51871 174.529 2.55274 174.514 2.58372C174.498 2.6147 174.477 2.64263 174.452 2.66901C174.427 2.69539 174.397 2.71721 174.363 2.73445C174.33 2.7517 174.294 2.76436 174.257 2.77243C174.22 2.78049 174.182 2.78395 174.143 2.78395C174.104 2.78395 174.066 2.78049 174.029 2.77548C173.992 2.77048 173.956 2.76131 173.922 2.74712C173.889 2.73293 173.859 2.71415 173.833 2.69077C173.806 2.66739 173.783 2.64096 173.766 2.61458C173.749 2.5882 173.737 2.56182 173.731 2.53239C173.725 2.50295 173.725 2.47352 173.731 2.44408C173.737 2.41465 173.749 2.38826 173.766 2.36188C173.78 2.3355 173.798 2.31217 173.82 2.29188C173.843 2.27159 173.868 2.25435 173.895 2.24016C173.922 2.22597 173.951 2.21178 173.981 2.20371C174.012 2.19564 174.043 2.19259 174.074 2.19259C174.105 2.19259 174.137 2.19564 174.168 2.20371C174.199 2.21178 174.228 2.22597 174.255 2.24016C174.283 2.25435 174.308 2.27159 174.33 2.29188C174.353 2.31217 174.372 2.3355 174.387 2.36188C174.402 2.38826 174.414 2.41465 174.419 2.44408C174.425 2.47352 174.425 2.50295 174.419 2.53239C174.414 2.56182 174.402 2.5882 174.384 2.61458C174.367 2.64096 174.345 2.66739 174.318 2.69077C174.291 2.71415 174.261 2.73293 174.228 2.74712C174.194 2.76131 174.158 2.77048 174.121 2.77548C174.084 2.78049 174.046 2.78395 174.007 2.78395C173.968 2.78395 173.93 2.78049 173.893 2.77243C173.856 2.76436 173.82 2.7517 173.787 2.73445C173.753 2.71721 173.723 2.69539 173.698 2.66901C173.673 2.64263 173.652 2.6147 173.636 2.58372C173.621 2.55274 173.612 2.51871 173.612 2.48163C173.612 2.47549 173.612 2.4663 173.612 2.46015C173.612 2.45096 173.612 2.44177 173.612 2.42953V2.42648C173.617 2.36161 173.635 2.30047 173.664 2.24849C173.692 2.19651 173.733 2.15293 173.785 2.11891C173.836 2.08489 173.895 2.05737 173.962 2.03708C174.029 2.01679 174.099 2.0015 174.172 2.0015C174.252 2.0015 174.325 2.01373 174.392 2.04431C174.459 2.07488 174.517 2.11463 174.566 2.16661C174.615 2.21858 174.651 2.27973 174.679 2.35005C174.706 2.42037 174.718 2.49681 174.718 2.58242C174.718 2.66803 174.706 2.74752 174.679 2.81784C174.654 2.88816 174.618 2.94931 174.569 3.00129C174.52 3.05326 174.465 3.09301 174.398 3.12053C174.331 3.14804 174.261 3.16333 174.182 3.16333C174.09 3.16333 174.011 3.14499 173.944 3.1083H174.206Z" fill="#212023"/>
<path d="M152.346 0.614014H144.745V44.359H152.346V0.614014Z" fill="#212023"/>
<path d="M107.154 22.4969V11.075C107.154 4.13892 102.628 0 95.0511 0C87.4742 0 83.0125 4.13892 83.0125 11.075V22.5H86.7734V33.925C86.7734 40.8611 91.2749 45 98.812 45C106.349 45 110.915 40.8611 110.915 33.925V22.4969H107.154ZM98.8181 37.9595C95.7764 37.9595 94.2983 36.5809 94.2983 33.7439V22.5H90.5374V11.2623C90.5374 8.34232 91.9726 6.98212 95.0572 6.98212C98.1419 6.98212 99.6352 8.34232 99.6352 11.2623V22.4969H103.393V23.2185H103.396V33.7439C103.396 36.5809 101.897 37.9595 98.8181 37.9595Z" fill="#212023"/>
</g>
<defs>
<clipPath id="clip0_4_3885">
<rect width="176" height="45" fill="white"/>
</clipPath>
</defs>
</svg>